<svg xmlns="http://www.w3.org/2000/svg" xmlns:xlink="http://www.w3.org/1999/xlink" version="1.1" id="Layer_1" x="0" y="0" width="354.41" height="156.44" viewBox="0 0 354.41 156.44" enable-background="new 0 0 354.406 156.441" xml:space="preserve">
  <defs>
    <path id="SVGID_1_" d="M156.83 155.48h0H156.83zM279.48 0h-26.52c-0.86 0-1.45 0-2.19 0.5 -0.47 0.31-0.72 0.73-0.85 0.99l-30.16 79.8L209.08 2.32c0-0.01-0.01-0.02-0.01-0.04 -0.16-1.09-0.98-1.71-0.98-1.71 -0.57-0.51-1.32-0.56-1.56-0.57h-28.13 -2.54 -3.43c0.06 0 0.11 0.01 0.17 0.02h-35.19c-9.27 0.06-17.3 1.64-24.08 4.76 -6.91 3.19-12.12 7.38-15.65 12.6 -3.52 5.22-5.28 11.01-5.28 17.37 0 7.86 2.2 14.23 6.6 19.11 4.4 4.87 11.35 8.94 20.83 12.19 6.23 2.17 10.77 3.9 13.62 5.19 2.84 1.28 4.84 2.64 5.99 4.06 1.15 1.42 1.73 3.35 1.73 5.79 0 3.12-1.42 5.69-4.27 7.72 -2.84 2.03-6.98 3.05-12.39 3.05 -9.75 0-18.25-2.84-26.14-8.98 0 0.01-0.31-0.21-0.31-0.21s-0.91-0.78-2.26-0.45c-0.96 0.23-1.4 0.85-1.59 1.2l-7.12 16.75c-0.18 0.42-0.42 0.99-0.23 1.84 0.13 0.6 0.49 1.02 0.69 1.23 2.95 2.65 6.88 4.88 10.96 6.71 7.75 3.49 16.46 4.88 25.81 4.88 10.56 0 19.51-1.7 26.82-5.08 7.31-3.38 12.74-7.92 16.26-13.61 3.52-5.69 5.28-11.98 5.28-18.89 0-8.26-2.34-15.04-7.01-20.32 -4.67-5.28-11.68-9.41-21.03-12.39 -6.09-1.9-10.54-3.42-13.31-4.57 -2.78-1.15-4.74-2.34-5.89-3.56 -1.15-1.22-1.73-2.77-1.73-4.67 0-2.71 1.25-4.88 3.76-6.5 2.51-1.62 6.06-2.44 10.67-2.44 2.66 0 6.19-0.01 9.57-0.01h31.78l13.7 86.47c0.07 0.28 0.26 0.93 0.76 1.41 0.54 0.52 1.06 0.69 1.55 0.73h4.21c0 0 1.69-0.03 2.42 1.4 0 0 0.76 1.38-0.16 2.76 -3.83 5.35-7.7 8.43-11.94 11.01 -1.19 0.73-2.52 1.42-4.11 2.17 -1.15 0.55-2.43 1.07-3.56 1.44 -4.37 1.42-9.05 2.42-15.49 2.15 0 0.01 0.01 0.02 0 0.02 -0.21 0.01-0.75 0.01-1.48 0.45 -0.43 0.26-0.69 0.65-0.83 0.92l-8.36 19.1c0 0.01 0.01 0.01 0.01 0.01 0 0-0.63 1.16 0.16 2.23 0.17 0.22 0.34 0.37 0.52 0.48h0c0.23 0.13 0.41 0.23 0.69 0.31 0.7 0.15 1.99 0.34 4.27 0.48 4.09 0.24 6.33 0.15 6.41 0.15 32.45 0.02 58.8-20.05 69.78-44.93l34.92-85.73c-0.85 2.86-1.29 5.85-1.29 8.98 0 7.86 2.2 14.23 6.6 19.11 4.4 4.87 11.35 8.94 20.83 12.19 6.23 2.17 10.77 3.9 13.61 5.19 2.85 1.28 4.85 2.64 6 4.06 1.15 1.42 1.73 3.35 1.73 5.79 0 3.12-1.43 5.69-4.27 7.72 -2.84 2.03-6.97 3.05-12.39 3.05 -9.75 0-18.25-2.84-26.14-8.98 0 0.01-0.31-0.21-0.31-0.21s-0.91-0.78-2.26-0.45c-0.96 0.23-1.39 0.85-1.59 1.2l-7.11 16.75c-0.18 0.42-0.42 0.99-0.23 1.84 0.13 0.6 0.48 1.02 0.69 1.23 2.95 2.65 6.88 4.88 10.96 6.71 7.75 3.49 16.46 4.88 25.81 4.88 10.57 0 19.51-1.7 26.83-5.08 7.31-3.38 12.73-7.92 16.25-13.61 3.52-5.69 5.28-11.98 5.28-18.89 0-8.26-2.33-15.04-7.01-20.32 -4.67-5.28-11.68-9.41-21.03-12.39 -6.1-1.9-10.53-3.42-13.31-4.57 -2.77-1.15-4.74-2.34-5.89-3.56 -1.15-1.22-1.72-2.77-1.72-4.67 0-2.71 1.25-4.88 3.76-6.5 2.5-1.62 6.06-2.44 10.67-2.44 4.19 0 10.58-0.02 15.13-0.02h12.14c0.29-0.03 0.74-0.13 1.15-0.44 0.67-0.5 0.84-0.9 1.07-1.43 0.06-0.13 0.62-1.44 1.43-3.33l4.3-10.04 0.01-0.02 1.67-3.89c0.11-0.28 0.18-0.61 0.19-0.96V2.54c-0.01-0.48-0.16-1.01-0.57-1.54 -0.71-0.91-1.73-0.98-1.99-0.98h-35.22c-9.26 0.06-17.3 1.64-24.08 4.76 -6.91 3.19-12.13 7.38-15.65 12.6 -0.71 1.05-1.33 2.14-1.9 3.24l6.89-16.9c0.24-0.65 0.4-1.7-0.32-2.68C280.83 0.02 279.54 0 279.48 0H279.48z"/>
  </defs>
  <clipPath id="SVGID_2_">
    <use xlink:href="#SVGID_1_" overflow="visible"/>
  </clipPath>
  <linearGradient id="SVGID_3_" gradientUnits="userSpaceOnUse" x1="-250.63" y1="365.85" x2="-249.9" y2="365.85" gradientTransform="matrix(365.7009 0 0 -365.7009 91743.0781 133870.9688)">
    <stop offset="0" stop-color="#4970B1"/>
    <stop offset="1" stop-color="#72C6EE"/>
  </linearGradient>
  <rect x="86.65" y="0" clip-path="url(#SVGID_2_)" fill="url(#SVGID_3_)" width="267.75" height="156.51"/>
  <path fill="#4B6AAD" d="M85.5 0H51.71c-0.77 0-1.52 0.03-2.28 0.06 -0.18 0.01-0.37 0.01-0.56 0.02 0 0-0.01 0-0.02 0h-1.27c-0.9 0.04-1.78 0.1-2.66 0.17 -6.94 0.54-13.12 2.03-18.49 4.5 -6.88 3.17-12.07 7.36-15.58 12.55C7.34 22.49 5.59 28.26 5.59 34.6c0 7.83 2.19 14.17 6.58 19.02 4.38 4.86 11.3 8.91 20.75 12.14 6.2 2.16 10.73 3.88 13.56 5.16 2.83 1.28 4.82 2.63 5.96 4.05 1.15 1.41 1.72 3.34 1.72 5.77 0 3.1-1.42 5.66-4.25 7.69 -2.83 2.02-6.95 3.04-12.34 3.04 -9.71 0-18.18-2.83-26.03-8.94 0 0.02-0.31-0.21-0.31-0.21s-0.91-0.77-2.25-0.45c-0.95 0.23-1.39 0.84-1.59 1.19L0.3 99.74c-0.18 0.42-0.42 0.98-0.23 1.83 0.13 0.6 0.48 1.02 0.69 1.23 2.94 2.63 6.85 4.86 10.91 6.68 7.72 3.48 16.39 4.86 25.7 4.86 10.52 0 19.43-1.69 26.71-5.06 7.29-3.37 12.68-7.89 16.19-13.56 3.51-5.66 5.27-11.94 5.27-18.82 0-8.23-2.33-14.98-6.98-20.24 -4.66-5.26-11.64-9.37-20.95-12.34 -3.66-1.14-6.71-2.14-9.16-3.01l0 0c-1.68-0.55-3.2-1.15-4.61-1.77 -0.5-0.22-0.98-0.43-1.43-0.65 -0.04-0.02-0.08-0.04-0.12-0.06 -0.25-0.12-0.5-0.25-0.73-0.38 -16.27-8.44-13.16-21.66-13.16-21.66l0.63-2.77c0.83-3.27 2.94-6.31 6.69-9.38 0.32-0.21 1.05-0.81 2.27-1.42 -1.4 1.02-2.63 2.27-3.65 3.67 -1.97 2.73-3.15 6.08-3.15 9.7 0 5.12 2.32 9.69 5.95 12.73 0.18-0.57 0.44-1.15 0.8-1.76 2.38-3.87 9.09-4.89 13.54-4.89 0.03 0 0.05 0 0.07 0.01 0.29-0.01 0.57-0.02 0.87-0.02 2.99 0 7.08-0.01 10.83-0.01 1.5 0 2.95 0 4.24 0h0.57 10.23c0.29-0.03 0.74-0.13 1.15-0.43 0.67-0.5 0.84-0.9 1.06-1.42 0.06-0.14 0.61-1.44 1.42-3.32l4.28-10L86.2 7.46l1.66-3.88c0.25-0.68 0.36-1.64-0.37-2.59C86.78 0.08 85.76 0.01 85.5 0"/>
  <defs>
    <path id="SVGID_4_" d="M51.71 0c-0.77 0.01-1.52 0.03-2.28 0.06 -0.18 0.01-0.37 0.01-0.56 0.02h-0.02 -1.27c-0.9 0.04-1.78 0.1-2.66 0.17 -0.1 0.01-0.2 0.02-0.3 0.03 -2.13 0.5-4.91 1.5-7.42 3.54 -0.05 0.04-0.1 0.08-0.16 0.13 -0.23 0.19-0.45 0.4-0.67 0.61 -0.34 0.33-0.67 0.66-0.98 1.02 -0.1 0.11-0.2 0.22-0.3 0.34 -0.16 0.19-0.31 0.39-0.46 0.59 -0.18 0.24-0.36 0.48-0.53 0.73 -0.14 0.21-0.28 0.41-0.42 0.63 -0.02 0.04-0.05 0.08-0.08 0.12 -1.53 2.51-2.43 5.46-2.43 8.61 0 5.12 2.32 9.69 5.95 12.73 0.18-0.57 0.44-1.15 0.8-1.76 2.38-3.87 9.09-4.89 13.54-4.89 0.03 0 0.05 0 0.07 0.01 0.29-0.01 0.57-0.02 0.87-0.02 2.99 0 7.08-0.01 10.83-0.01 1.5 0 2.95 0 4.24 0h0.57 10.23c0.29-0.03 0.74-0.13 1.15-0.43 0.67-0.5 0.84-0.9 1.06-1.42 0.06-0.14 0.61-1.44 1.42-3.32l4.28-9.99 0.01-0.01 1.66-3.88c0.25-0.68 0.36-1.64-0.37-2.59C86.78 0.08 85.76 0.01 85.5 0H51.71z"/>
  </defs>
  <clipPath id="SVGID_5_">
    <use xlink:href="#SVGID_4_" overflow="visible"/>
  </clipPath>
  <linearGradient id="SVGID_6_" gradientUnits="userSpaceOnUse" x1="-249.97" y1="365.54" x2="-249.23" y2="365.54" gradientTransform="matrix(77.7078 0 0 -77.7078 19455.4824 28420.1543)">
    <stop offset="0" stop-color="#573B8C"/>
    <stop offset="1" stop-color="#4970B1"/>
  </linearGradient>
  <rect x="31.18" clip-path="url(#SVGID_5_)" fill="url(#SVGID_6_)" width="57.04" height="29.31"/>
</svg>
